<?xml version="1.0" encoding="utf-8"?>
<svg xmlns="http://www.w3.org/2000/svg"
	xmlns:xlink="http://www.w3.org/1999/xlink"
	width="41px" height="33px" viewBox="0 0 41 33">
<filter filterUnits="objectBoundingBox" x="0.00" y="0.00" width="100.00" height="100.00" id="filter0">
<feFlood flood-color="rgb(255,59,73)" result="coFloodOut1"/>
<feComposite in="coFloodOut1" in2="SourceAlpha" operator="in" result="coOverlay1"/>
<feBlend in="coOverlay1" in2="SourceGraphic" mode="normal" result="colorOverlay1"/>
</filter>
<linearGradient id="linear_PSgrad_0" x1="0%" y1="0%" x2="100%" y2="100%">
    <stop offset="0%" stop-color="rgb(255,255,255)" stop-opacity="1" />
    <stop offset="100%" stop-color="rgb(255,255,255)" stop-opacity="1" />
</linearGradient>

<path fillRule="evenodd" d="M 40.08 10.45C 40.08 10.41 40.05 10.4 40.05 10.37 40.04 10.3 40.05 10.23 40.03 10.16 40.03 10.16 35.91 0.47 35.91 0.47 35.79 0.2 35.53 0.03 35.24 0.03 35.24 0.03 4.84 0.03 4.84 0.03 4.55 0.03 4.28 0.2 4.17 0.47 4.17 0.47 0.05 10.16 0.05 10.16 0.02 10.23 0.03 10.3 0.02 10.37 0.02 10.4-0.01 10.41-0.01 10.45-0.01 10.46 0.01 10.47 0.01 10.49 0.02 10.65 0.06 10.8 0.17 10.92 0.17 10.92 19.49 32.75 19.49 32.75 19.51 32.77 19.54 32.77 19.55 32.79 19.61 32.83 19.65 32.87 19.71 32.91 19.72 32.91 19.73 32.94 19.75 32.94 19.84 32.98 19.94 33 20.03 33 20.13 33 20.23 32.98 20.33 32.94 20.35 32.94 20.35 32.91 20.36 32.9 20.42 32.87 20.47 32.83 20.52 32.79 20.53 32.77 20.56 32.77 20.58 32.75 20.58 32.75 39.9 10.92 39.9 10.92 40.01 10.8 40.05 10.65 40.07 10.49 40.07 10.47 40.08 10.46 40.08 10.45ZM 24.96 1.47C 24.96 1.47 28.52 9.73 28.52 9.73 28.52 9.73 11.56 9.73 11.56 9.73 11.56 9.73 15.11 1.47 15.11 1.47 15.11 1.47 24.96 1.47 24.96 1.47ZM 28.51 11.17C 28.51 11.17 20.03 30.47 20.03 30.47 20.03 30.47 11.57 11.17 11.57 11.17 11.57 11.17 28.51 11.17 28.51 11.17ZM 9.98 11.17C 9.98 11.17 17.51 28.34 17.51 28.34 17.51 28.34 2.32 11.17 2.32 11.17 2.32 11.17 9.98 11.17 9.98 11.17ZM 30.09 11.17C 30.09 11.17 37.75 11.17 37.75 11.17 37.75 11.17 22.56 28.34 22.56 28.34 22.56 28.34 30.09 11.17 30.09 11.17ZM 38.27 9.73C 38.27 9.73 30.09 9.73 30.09 9.73 30.09 9.73 26.54 1.47 26.54 1.47 26.54 1.47 34.76 1.47 34.76 1.47 34.76 1.47 38.27 9.73 38.27 9.73ZM 5.32 1.47C 5.32 1.47 13.54 1.47 13.54 1.47 13.54 1.47 9.98 9.73 9.98 9.73 9.98 9.73 1.81 9.73 1.81 9.73 1.81 9.73 5.32 1.47 5.32 1.47Z" fill="url(#linear_PSgrad_0)" filter="url(#filter0)"/></svg>