<?xml version="1.0" encoding="utf-8"?>
<svg xmlns="http://www.w3.org/2000/svg"
	xmlns:xlink="http://www.w3.org/1999/xlink"
	width="40px" height="38px" viewBox="0 0 40 38">
<filter filterUnits="objectBoundingBox" x="0.00" y="0.00" width="100.00" height="100.00" id="filter0">
<feFlood flood-color="rgb(255,59,73)" result="coFloodOut1"/>
<feComposite in="coFloodOut1" in2="SourceAlpha" operator="in" result="coOverlay1"/>
<feBlend in="coOverlay1" in2="SourceGraphic" mode="normal" result="colorOverlay1"/>
</filter>
<linearGradient id="linear_PSgrad_0" x1="0%" y1="0%" x2="100%" y2="100%">
    <stop offset="0%" stop-color="rgb(255,255,255)" stop-opacity="1" />
    <stop offset="100%" stop-color="rgb(255,255,255)" stop-opacity="1" />
</linearGradient>

<path fillRule="evenodd" d="M 39.7 13.07C 38.65 10.25 37.1 7.71 35.09 5.51 33.09 3.32 30.7 1.55 27.98 0.24 27.67 0.09 27.3 0.14 27.05 0.38 27.05 0.38 9.56 16.34 9.56 16.34 9.56 16.34 7.55 18.18 7.55 18.18 7.44 18.27 7.34 18.39 7.28 18.53 7.28 18.55 7.27 18.58 7.26 18.6 7.26 18.6 2.55 30.81 2.55 30.81 2.55 30.81 0.55 36.03 0.55 36.03 0.43 36.32 0.5 36.65 0.71 36.89 0.87 37.07 1.1 37.16 1.33 37.16 1.4 37.16 1.48 37.15 1.56 37.12 1.56 37.12 6.94 35.6 6.94 35.6 6.94 35.6 19.59 32.01 19.59 32.01 19.66 31.99 19.74 31.96 19.82 31.91 19.86 31.88 19.89 31.85 19.93 31.82 19.93 31.82 22 29.94 22 29.94 22 29.94 39.48 13.98 39.48 13.98 39.73 13.75 39.82 13.38 39.7 13.07ZM 3.78 32.27C 3.81 32.29 3.85 32.31 3.89 32.33 4.24 32.55 4.58 32.8 4.85 33.1 5.13 33.41 5.35 33.76 5.54 34.13 5.56 34.17 5.57 34.21 5.58 34.25 5.58 34.25 2.71 35.06 2.71 35.06 2.71 35.06 3.78 32.27 3.78 32.27ZM 18.95 30.46C 18.95 30.46 7.23 33.78 7.23 33.78 7.2 33.71 7.14 33.65 7.11 33.58 6.84 33 6.51 32.44 6.09 31.98 5.66 31.51 5.14 31.14 4.58 30.82 4.51 30.78 4.46 30.71 4.4 30.68 4.4 30.68 8.77 19.33 8.77 19.33 8.77 19.33 10.08 18.14 10.08 18.14 10.08 18.14 11.14 19.29 11.14 19.29 11.14 19.29 20.25 29.27 20.25 29.27 20.25 29.27 18.95 30.46 18.95 30.46ZM 21.48 28.14C 21.48 28.14 18.84 25.25 18.84 25.25 18.84 25.25 32.74 12.56 32.74 12.56 32.92 12.39 33.01 12.17 33.01 11.94 33.01 11.74 32.94 11.54 32.79 11.38 32.48 11.04 31.95 11.02 31.61 11.33 31.61 11.33 17.71 24.01 17.71 24.01 17.71 24.01 17.17 23.41 17.17 23.41 17.17 23.41 15.08 21.13 15.08 21.13 15.08 21.13 28.98 8.45 28.98 8.45 29.16 8.28 29.25 8.06 29.25 7.82 29.25 7.63 29.18 7.43 29.03 7.26 28.72 6.93 28.19 6.91 27.85 7.21 27.85 7.21 13.95 19.9 13.95 19.9 13.95 19.9 11.31 17.01 11.31 17.01 11.31 17.01 27.76 1.99 27.76 1.99 30.08 3.18 32.13 4.74 33.86 6.64 35.6 8.54 36.96 10.72 37.93 13.13 37.93 13.13 21.48 28.14 21.48 28.14Z" fill="url(#linear_PSgrad_0)" filter="url(#filter0)"/></svg>