<?xml version="1.0" encoding="utf-8"?>
<svg xmlns="http://www.w3.org/2000/svg"
	xmlns:xlink="http://www.w3.org/1999/xlink"
	width="44px" height="33px" viewBox="0 0 44 33">
<filter filterUnits="objectBoundingBox" x="0.00" y="0.00" width="100.00" height="100.00" id="filter0">
<feFlood flood-color="rgb(255,59,73)" result="coFloodOut1"/>
<feComposite in="coFloodOut1" in2="SourceAlpha" operator="in" result="coOverlay1"/>
<feBlend in="coOverlay1" in2="SourceGraphic" mode="normal" result="colorOverlay1"/>
</filter>
<linearGradient id="linear_PSgrad_0" x1="0%" y1="0%" x2="100%" y2="100%">
    <stop offset="0%" stop-color="rgb(255,255,255)" stop-opacity="1" />
    <stop offset="100%" stop-color="rgb(255,255,255)" stop-opacity="1" />
</linearGradient>

<path fillRule="evenodd" d="M 43.95 16.63C 43.95 16.63 43.95 26.97 43.95 26.97 43.95 27.4 43.6 27.75 43.16 27.75 43.16 27.75 40.53 27.75 40.53 27.75 40.09 27.75 39.74 27.4 39.74 26.97 39.74 26.54 40.09 26.19 40.53 26.19 40.53 26.19 42.38 26.19 42.38 26.19 42.38 26.19 42.38 17.32 42.38 17.32 42.38 17.32 35.25 17.32 35.25 17.32 34.82 17.32 34.46 16.97 34.46 16.54 34.46 16.54 34.46 6.82 34.46 6.82 34.46 6.82 28.12 6.82 28.12 6.82 28.12 6.82 28.12 21.14 28.12 21.14 28.12 21.57 27.77 21.92 27.34 21.92 26.9 21.92 26.55 21.57 26.55 21.14 26.55 21.14 26.55 6.04 26.55 6.04 26.55 6.04 26.55 1.55 26.55 1.55 26.55 1.55 1.58 1.55 1.58 1.55 1.58 1.55 1.58 26.19 1.58 26.19 1.58 26.19 3.46 26.19 3.46 26.19 3.9 26.19 4.25 26.54 4.25 26.97 4.25 27.4 3.9 27.75 3.46 27.75 3.46 27.75 0.8 27.75 0.8 27.75 0.36 27.75 0.01 27.4 0.01 26.97 0.01 26.97 0.01 0.77 0.01 0.77 0.01 0.34 0.36-0 0.8-0 0.8-0 27.34-0 27.34-0 27.77-0 28.12 0.34 28.12 0.77 28.12 0.77 28.12 5.26 28.12 5.26 28.12 5.26 43.16 5.26 43.16 5.26 43.6 5.26 43.95 5.61 43.95 6.04 43.95 6.04 43.95 16.45 43.95 16.45 43.96 16.48 43.99 16.5 43.99 16.54 43.99 16.57 43.96 16.59 43.95 16.63ZM 42.38 6.82C 42.38 6.82 36.04 6.82 36.04 6.82 36.04 6.82 36.04 15.76 36.04 15.76 36.04 15.76 42.38 15.76 42.38 15.76 42.38 15.76 42.38 6.82 42.38 6.82ZM 11.4 20.95C 14.75 20.95 17.49 23.65 17.49 26.97 17.49 30.29 14.75 32.99 11.4 32.99 8.04 32.99 5.31 30.29 5.31 26.97 5.31 23.65 8.04 20.95 11.4 20.95ZM 11.4 31.43C 13.88 31.43 15.91 29.43 15.91 26.97 15.91 24.51 13.88 22.51 11.4 22.51 8.91 22.51 6.88 24.51 6.88 26.97 6.88 29.43 8.91 31.43 11.4 31.43ZM 19.33 26.19C 19.33 26.19 24.67 26.19 24.67 26.19 25.1 26.19 25.45 26.54 25.45 26.97 25.45 27.4 25.1 27.75 24.67 27.75 24.67 27.75 19.33 27.75 19.33 27.75 18.89 27.75 18.54 27.4 18.54 26.97 18.54 26.54 18.89 26.19 19.33 26.19ZM 32.6 20.95C 35.95 20.95 38.68 23.65 38.68 26.97 38.68 30.29 35.95 32.99 32.6 32.99 29.24 32.99 26.51 30.29 26.51 26.97 26.51 23.65 29.24 20.95 32.6 20.95ZM 32.6 31.43C 35.08 31.43 37.11 29.43 37.11 26.97 37.11 24.51 35.08 22.51 32.6 22.51 30.11 22.51 28.09 24.51 28.09 26.97 28.09 29.43 30.11 31.43 32.6 31.43Z" fill="url(#linear_PSgrad_0)" filter="url(#filter0)"/></svg>