<?xml version="1.0" encoding="utf-8"?>
<svg xmlns="http://www.w3.org/2000/svg"
	xmlns:xlink="http://www.w3.org/1999/xlink"
	width="41px" height="41px" viewBox="0 0 41 41">
<filter filterUnits="objectBoundingBox" x="0.00" y="0.00" width="100.00" height="100.00" id="filter0">
<feFlood flood-color="rgb(255,59,73)" result="coFloodOut1"/>
<feComposite in="coFloodOut1" in2="SourceAlpha" operator="in" result="coOverlay1"/>
<feBlend in="coOverlay1" in2="SourceGraphic" mode="normal" result="colorOverlay1"/>
</filter>
<linearGradient id="linear_PSgrad_0" x1="0%" y1="0%" x2="100%" y2="100%">
    <stop offset="0%" stop-color="rgb(127,39,117)" stop-opacity="1" />
    <stop offset="0%" stop-color="rgb(255,255,255)" stop-opacity="1" />
    <stop offset="100%" stop-color="rgb(255,255,255)" stop-opacity="1" />
</linearGradient>

<path fillRule="evenodd" d="M 40.2 23.21C 40.2 23.21 35.22 24.46 35.22 24.46 34.93 25.44 34.53 26.39 34.05 27.29 34.05 27.29 36.7 31.7 36.7 31.7 36.87 31.99 36.82 32.35 36.59 32.59 36.59 32.59 33.17 36.02 33.17 36.02 32.94 36.25 32.57 36.29 32.3 36.13 32.3 36.13 27.89 33.47 27.89 33.47 26.98 33.97 26.03 34.37 25.06 34.68 25.06 34.68 23.82 39.64 23.82 39.64 23.74 39.96 23.46 40.19 23.13 40.19 23.13 40.19 18.29 40.19 18.29 40.19 17.97 40.19 17.68 39.96 17.6 39.64 17.6 39.64 16.36 34.68 16.36 34.68 15.4 34.38 14.45 33.98 13.53 33.48 13.53 33.48 9.13 36.13 9.13 36.13 8.85 36.3 8.48 36.25 8.25 36.02 8.25 36.02 4.83 32.59 4.83 32.59 4.6 32.36 4.55 31.99 4.72 31.71 4.72 31.71 7.37 27.3 7.37 27.3 6.87 26.39 6.48 25.44 6.19 24.46 6.19 24.46 1.21 23.22 1.21 23.22 0.89 23.14 0.67 22.85 0.67 22.52 0.67 22.52 0.67 17.67 0.67 17.67 0.67 17.34 0.89 17.05 1.21 16.98 1.21 16.98 6.16 15.74 6.16 15.74 6.46 14.76 6.87 13.81 7.36 12.89 7.36 12.89 4.72 8.48 4.72 8.48 4.55 8.19 4.6 7.83 4.83 7.6 4.83 7.6 8.24 4.17 8.24 4.17 8.48 3.94 8.84 3.89 9.12 4.07 9.12 4.07 13.52 6.71 13.52 6.71 14.43 6.22 15.38 5.83 16.35 5.53 16.35 5.53 17.59 0.54 17.59 0.54 17.67 0.22 17.96-0 18.29-0 18.29-0 23.12-0 23.12-0 23.45-0 23.74 0.22 23.82 0.54 23.82 0.54 25.05 5.51 25.05 5.51 26.03 5.81 26.98 6.22 27.88 6.71 27.88 6.71 32.29 4.06 32.29 4.06 32.57 3.89 32.93 3.94 33.17 4.17 33.17 4.17 36.58 7.59 36.58 7.59 36.82 7.82 36.86 8.19 36.69 8.47 36.69 8.47 34.05 12.89 34.05 12.89 34.53 13.8 34.93 14.75 35.22 15.72 35.22 15.72 40.2 16.97 40.2 16.97 40.52 17.05 40.75 17.34 40.75 17.67 40.75 17.67 40.75 22.51 40.75 22.51 40.75 22.84 40.52 23.13 40.2 23.21ZM 39.31 18.23C 39.31 18.23 34.47 17.02 34.47 17.02 34.22 16.95 34.02 16.76 33.95 16.51 33.64 15.37 33.19 14.27 32.6 13.23 32.47 13.01 32.47 12.73 32.6 12.5 32.6 12.5 35.17 8.21 35.17 8.21 35.17 8.21 32.55 5.59 32.55 5.59 32.55 5.59 28.27 8.16 28.27 8.16 28.05 8.3 27.77 8.3 27.54 8.17 26.5 7.56 25.39 7.1 24.26 6.78 24.01 6.71 23.82 6.51 23.76 6.26 23.76 6.26 22.56 1.44 22.56 1.44 22.56 1.44 18.85 1.44 18.85 1.44 18.85 1.44 17.64 6.29 17.64 6.29 17.58 6.54 17.39 6.74 17.14 6.81 16 7.12 14.9 7.57 13.87 8.17 13.64 8.3 13.37 8.3 13.14 8.16 13.14 8.16 8.86 5.59 8.86 5.59 8.86 5.59 6.24 8.22 6.24 8.22 6.24 8.22 8.81 12.5 8.81 12.5 8.94 12.73 8.94 13.01 8.81 13.24 8.21 14.29 7.74 15.4 7.43 16.53 7.35 16.78 7.16 16.97 6.91 17.04 6.91 17.04 2.11 18.24 2.11 18.24 2.11 18.24 2.11 21.95 2.11 21.95 2.11 21.95 6.94 23.17 6.94 23.17 7.19 23.23 7.39 23.43 7.46 23.68 7.77 24.81 8.22 25.92 8.82 26.95 8.95 27.18 8.95 27.46 8.81 27.69 8.81 27.69 6.25 31.97 6.25 31.97 6.25 31.97 8.87 34.6 8.87 34.6 8.87 34.6 13.14 32.03 13.14 32.03 13.26 31.96 13.39 31.92 13.51 31.92 13.64 31.92 13.76 31.95 13.87 32.02 14.93 32.63 16.03 33.1 17.15 33.41 17.4 33.48 17.59 33.68 17.66 33.93 17.66 33.93 18.86 38.75 18.86 38.75 18.86 38.75 22.56 38.74 22.56 38.74 22.56 38.74 23.76 33.93 23.76 33.93 23.82 33.68 24.02 33.48 24.26 33.41 25.4 33.09 26.5 32.62 27.54 32.02 27.77 31.88 28.05 31.89 28.27 32.02 28.27 32.02 32.55 34.6 32.55 34.6 32.55 34.6 35.17 31.96 35.17 31.96 35.17 31.96 32.6 27.68 32.6 27.68 32.47 27.45 32.47 27.17 32.6 26.94 33.19 25.91 33.64 24.82 33.95 23.67 34.02 23.42 34.22 23.23 34.47 23.16 34.47 23.16 39.31 21.95 39.31 21.95 39.31 21.95 39.31 18.23 39.31 18.23ZM 20.71 25.66C 17.65 25.66 15.16 23.16 15.16 20.09 15.16 17.02 17.65 14.53 20.71 14.53 23.77 14.53 26.26 17.02 26.26 20.09 26.26 23.16 23.77 25.66 20.71 25.66ZM 20.71 15.97C 18.44 15.97 16.6 17.82 16.6 20.09 16.6 22.36 18.44 24.21 20.71 24.21 22.97 24.21 24.82 22.36 24.82 20.09 24.82 17.82 22.97 15.97 20.71 15.97Z" fill="url(#linear_PSgrad_0)" filter="url(#filter0)"/></svg>