<!-- Generated by IcoMoon.io -->
<svg version="1.1" xmlns="http://www.w3.org/2000/svg" width="48" height="48" viewBox="0 0 48 48">
<title>google-plus2</title>
<path d="M43.5 0h-39c-2.475 0-4.5 2.025-4.5 4.5v39c0 2.475 2.025 4.5 4.5 4.5h39c2.475 0 4.5-2.025 4.5-4.5v-39c0-2.475-2.025-4.5-4.5-4.5zM18 36c-6.637 0-12-5.362-12-12s5.363-12 12-12c3.244 0 5.953 1.181 8.044 3.141l-3.263 3.131c-0.891-0.853-2.447-1.847-4.781-1.847-4.097 0-7.444 3.394-7.444 7.575s3.347 7.575 7.444 7.575c4.753 0 6.534-3.413 6.806-5.175h-6.806v-4.116h11.334c0.103 0.6 0.188 1.2 0.188 1.988 0 6.863-4.594 11.728-11.522 11.728zM42 24h-3v3h-3v-3h-3v-3h3v-3h3v3h3v3z"></path>
</svg>
