<!-- Generated by IcoMoon.io -->
<svg version="1.1" xmlns="http://www.w3.org/2000/svg" width="48" height="48" viewBox="0 0 48 48">
<title>linkedin</title>
<path d="M43.5 0h-39c-2.475 0-4.5 2.025-4.5 4.5v39c0 2.475 2.025 4.5 4.5 4.5h39c2.475 0 4.5-2.025 4.5-4.5v-39c0-2.475-2.025-4.5-4.5-4.5zM18 39h-6v-21h6v21zM15 15c-1.659 0-3-1.341-3-3s1.341-3 3-3c1.659 0 3 1.341 3 3s-1.341 3-3 3zM39 39h-6v-12c0-1.659-1.341-3-3-3s-3 1.341-3 3v12h-6v-21h6v3.722c1.237-1.697 3.131-3.722 5.25-3.722 3.731 0 6.75 3.356 6.75 7.5v13.5z"></path>
</svg>
